Coordinates
version=1
nRows=15
nColumns=42
inDegrees=yes

Units are S.I. units (second, meters, Newtons, ...)
If the header above contains a line with 'inDegrees', this indicates whether rotational values are in degrees (yes) or radians (no).

endheader
time	pelvis_tilt	pelvis_list	pelvis_rotation	pelvis_tx	pelvis_ty	pelvis_tz	hip_flexion_r	hip_adduction_r	hip_rotation_r	knee_angle_r	knee_adduction_r	knee_angle_r_beta	ankle_angle_r	subtalar_angle_r	mtp_angle_r	hip_flexion_l	hip_adduction_l	hip_rotation_l	knee_angle_l	knee_adduction_l	knee_angle_l_beta	ankle_angle_l	subtalar_angle_l	mtp_angle_l	lumbar_extension	lumbar_bending	lumbar_rotation	arm_flex_r	arm_add_r	arm_rot_r	elbow_flex_r	pro_sup_r	wrist_flex_r	wrist_dev_r	arm_flex_l	arm_add_l	arm_rot_l	elbow_flex_l	pro_sup_l	wrist_flex_l	wrist_dev_l
      1.24000000	     13.96284015	      2.36552238	      6.96764006	     -1.43867268	      0.92091446	      0.03212467	      8.76432015	     -2.87857513	    -38.79813424	     32.06654742	     -8.83573380	      0.55966683	     11.14501856	     31.24370328	     -7.69583822	    -12.37594852	     -0.37007799	     -9.92030026	     53.50386959	     -8.22502019	      0.93381869	      5.75383997	      5.16331688	     -7.69583822	    -35.97312902	     -4.71495583	     -6.93302726	    -10.48737857	     -7.63459910	      4.27580198	     32.92948066	     90.00000001	      0.00000000	      0.00000000	     23.55128909	    -13.67205522	     -0.34953716	     39.39503473	     90.00000001	      0.00000000	      0.00000000
      1.25000000	     13.77634796	      2.32981513	      6.77234933	     -1.43005418	      0.92142508	      0.03373779	      8.44931605	     -2.70034683	    -38.87467282	     32.15675147	     -8.95850964	      0.56124119	     11.68027630	     31.84532475	     -7.68167154	    -10.44515488	     -0.47922873	     -6.26635625	     57.63272674	     -5.86139285	      1.00588084	      3.48145622	     -0.13285778	     -7.68167154	    -35.86916666	     -4.78475099	     -6.69231660	     -9.59415447	     -7.61389867	      3.75118236	     33.30617890	     90.00000001	      0.00000000	      0.00000000	     22.66940091	    -13.61189135	     -1.26146470	     40.06356089	     90.00000001	      0.00000000	      0.00000000
      1.26000000	     13.66665379	      2.02413918	      6.63530714	     -1.42134966	      0.92174406	      0.03536203	      7.96945238	     -2.16675054	    -38.89998869	     32.06051560	     -8.91895713	      0.55956156	     12.20349607	     31.81853225	     -7.67783831	     -8.38189601	     -1.07919605	     -4.51143533	     61.58103731	     -4.83719882	      1.07479186	      2.75813393	     -0.30335706	     -7.67783831	    -35.75586448	     -4.54093052	     -6.33448318	     -8.80260182	     -7.76735997	      3.59048983	     33.93434890	     90.00000001	      0.00000000	      0.00000000	     21.85827607	    -13.60088435	     -1.46562919	     40.13108170	     90.00000001	      0.00000000	      0.00000000
      1.27000000	     13.37892984	      1.96328350	      6.53307091	     -1.41319110	      0.92196282	      0.03671100	      7.74211032	     -2.01819534	    -38.97319280	     32.12959209	     -8.92034009	      0.56076717	     12.78518094	     32.28958365	     -7.66673082	     -6.17768227	     -1.11236422	     -0.51739682	     65.37196351	     -1.97419077	      1.14095600	      1.97040456	     -4.03429320	     -7.66673082	    -35.58990872	     -4.56923070	     -6.09501750	     -7.99570906	     -7.83261375	      3.03299042	     34.70469806	     90.00000001	      0.00000000	      0.00000000	     21.08513855	    -13.45099294	     -2.37536950	     40.63703056	     90.00000001	      0.00000000	      0.00000000
      1.28000000	     13.12471997	      1.77005275	      6.44716992	     -1.40498809	      0.92208572	      0.03800086	      7.42525381	     -1.69556817	    -39.00997785	     32.06375011	     -8.83173354	      0.55961801	     13.34940357	     32.45592582	     -7.65668911	     -3.91013835	     -1.35118553	      2.24245111	     68.84570352	     -0.02237095	      1.20158420	      2.02044682	     -5.31709568	     -7.65668911	    -35.41080523	     -4.44703987	     -5.80382265	     -7.22791525	     -8.01364275	      2.59235527	     35.54391221	     90.00000001	      0.00000000	      0.00000000	     20.32738701	    -13.29434636	     -3.01205079	     40.79066761	     90.00000001	      0.00000000	      0.00000000
      1.29000000	     12.83675147	      1.50826318	      6.37347649	     -1.39690067	      0.92206287	      0.03922138	      7.15601715	     -1.23872103	    -39.01160413	     31.91484275	     -8.82858934	      0.55701909	     13.92759934	     32.48232239	     -7.65281065	     -1.53661593	     -1.62456352	      4.18026135	     72.02713431	      1.18663100	      1.25711064	      2.70992513	     -5.51401939	     -7.65281065	    -35.18278596	     -4.25756524	     -5.48991630	     -6.43206620	     -8.24726832	      2.36160559	     36.41983186	     90.00000001	      0.00000000	      0.00000000	     19.57721027	    -13.20273942	     -3.27029503	     40.84826971	     90.00000001	      0.00000000	      0.00000000
      1.30000000	     12.60290181	      1.40093912	      6.33670449	     -1.38900139	      0.92218536	      0.04017387	      6.79749913	     -1.07757588	    -39.05007015	     31.90980983	     -8.64772832	      0.55693125	     14.49876907	     32.75365587	     -7.64569407	      0.67142539	     -1.61611276	      7.13837899	     74.75056034	      3.38978411	      1.30464340	      3.62286836	     -6.60301375	     -7.64569407	    -35.08261152	     -4.19866575	     -5.26132672	     -5.74416571	     -8.50114565	      1.91021689	     37.63079477	     90.00000001	      0.00000000	      0.00000000	     18.86485628	    -12.97910330	     -3.93960270	     41.00924607	     90.00000001	      0.00000000	      0.00000000
      1.31000000	     12.36408186	      1.23683043	      6.29843199	     -1.38113245	      0.92225308	      0.04106925	      6.42961307	     -0.81621018	    -39.05965335	     31.80815735	     -8.49683695	      0.55515707	     15.05538651	     32.91268583	     -7.63957333	      2.92899342	     -1.64752038	      9.20723314	     77.11996128	      4.81553342	      1.34599724	      4.71282566	     -7.20677898	     -7.63957333	    -34.94947237	     -4.08811993	     -5.01368145	     -5.03063448	     -8.81286793	      1.54438869	     38.79729458	     90.00000001	      0.00000000	      0.00000000	     18.16375587	    -12.77963301	     -4.47250386	     41.01864215	     90.00000001	      0.00000000	      0.00000000
      1.32000000	     12.36973094	      1.12973926	      6.22022304	     -1.37319634	      0.92273343	      0.04177608	      5.69309705	     -0.65533207	    -39.04845463	     31.62466922	     -8.13494524	      0.55195460	     15.34118734	     32.73798271	     -7.63767715	      4.87586452	     -1.54536859	      9.91233925	     78.97505321	      4.89330939	      1.37837471	      5.47182115	     -7.35744921	     -7.63767715	    -35.08286113	     -3.99778965	     -4.77738283	     -4.11456465	     -9.17118843	      1.38142850	     39.51412779	     90.00000001	      0.00000000	      0.00000000	     17.49409070	    -12.66704113	     -4.57598283	     40.90357826	     90.00000001	      0.00000000	      0.00000000
      1.33000000	     11.96527840	      0.92054675	      6.19240595	     -1.36552036	      0.92244415	      0.04257363	      5.55136180	     -0.31639568	    -39.08045332	     31.50351425	     -8.14201489	      0.54984005	     16.14091345	     33.28246952	     -7.63290751	      7.25805373	     -1.56747730	     12.42899708	     80.62452832	      6.95563047	      1.40716348	      7.14014872	     -8.20585731	     -7.63290751	    -34.74406974	     -3.87081550	     -4.46143724	     -3.66841600	     -9.63046918	      0.93149367	     41.31536942	     90.00000001	      0.00000000	      0.00000000	     16.74206333	    -12.32895398	     -5.22436736	     40.94274634	     90.00000001	      0.00000000	      0.00000000
      1.34000000	     11.85416446	      0.76445476	      6.12262070	     -1.35771209	      0.92273730	      0.04326573	      4.93177003	     -0.03460146	    -39.09683206	     31.15608414	     -7.92111665	      0.54377625	     16.48981127	     33.25109007	     -7.63090946	      9.30307459	     -1.53295324	     12.92469278	     81.73792560	      7.12015391	      1.42659593	      8.12366984	     -8.69192461	     -7.63090946	    -34.74234399	     -3.78420943	     -4.32264838	     -2.78505726	    -10.00845917	      0.74259487	     42.22060410	     90.00000001	      0.00000000	      0.00000000	     16.01413230	    -12.23404262	     -5.42109376	     40.77175657	     90.00000001	      0.00000000	      0.00000000
      1.35000000	     11.66922834	      0.59199554	      6.01399487	     -1.34991231	      0.92282772	      0.04397421	      4.42508970	      0.26867865	    -39.08039540	     30.82894697	     -7.78456206	      0.53806663	     17.01413603	     33.48095609	     -7.62868749	     11.34576497	     -1.50276081	     13.73516392	     82.48219360	      7.70215109	      1.43958585	      9.25749735	     -9.39325022	     -7.62868749	    -34.62538317	     -3.72298413	     -4.01708907	     -2.07861341	    -10.48297816	      0.49074146	     43.50142812	     90.00000001	      0.00000000	      0.00000000	     15.27485542	    -12.03292417	     -5.74100009	     40.66184800	     90.00000001	      0.00000000	      0.00000000
      1.36000000	     11.55765305	      0.50383345	      5.85188712	     -1.34219881	      0.92299697	      0.04453533	      3.86485974	      0.42105736	    -39.14824135	     30.61940879	     -7.70187787	      0.53440950	     17.63966490	     34.21180799	     -7.62484665	     13.18073820	     -1.37667089	     14.93753416	     82.76060784	      8.86369199	      1.44444510	     10.02043108	    -10.40569636	     -7.62484665	    -34.61453449	     -3.72270547	     -3.60211808	     -1.71609520	    -11.13107022	      0.18317854	     45.54273364	     90.00000001	      0.00000000	      0.00000000	     14.65802966	    -11.60102834	     -6.46934207	     40.63354983	     90.00000001	      0.00000000	      0.00000000
      1.37000000	     11.50990395	      0.40325070	      5.71810929	     -1.33437775	      0.92327839	      0.04503410	      3.16685730	      0.60766217	    -39.17092866	     30.29386553	     -7.51544203	      0.52872770	     18.06006635	     34.59530690	     -7.62038527	     14.90227610	     -1.26102965	     15.23251475	     82.64991326	      9.14140786	      1.44251311	     10.50347849	    -11.28784603	     -7.62038527	    -34.64487521	     -3.69480730	     -3.35773783	     -1.12714222	    -11.75396248	      0.05118358	     47.20052053	     90.00000001	      0.00000000	      0.00000000	     13.94570828	    -11.28436407	     -7.19776468	     40.45343980	     90.00000001	      0.00000000	      0.00000000
      1.38000000	     11.44955373	      0.29313938	      5.57339620	     -1.32645838	      0.92351480	      0.04560825	      2.46979415	      0.83519583	    -39.18178198	     29.89589058	     -7.35001514	      0.52178172	     18.36239953	     34.60004860	     -7.61848099	     16.55626869	     -1.19888535	     15.05799966	     82.17611703	      9.04780145	      1.43424381	     11.10411994	    -11.75548413	     -7.61848099	    -34.62057393	     -3.70007542	     -3.20356952	     -0.25017481	    -12.24981706	     -0.08420503	     48.15736010	     90.00000001	      0.00000000	      0.00000000	     13.16176911	    -11.18409014	     -7.43301472	     40.24858870	     90.00000001	      0.00000000	      0.00000000
